<?xml version="1.0" encoding="utf-8"?>
<!-- Generator: Adobe Illustrator 23.0.3, SVG Export Plug-In . SVG Version: 6.00 Build 0)  -->
<svg version="1.1" id="Layer_1" xmlns="http://www.w3.org/2000/svg" xmlns:xlink="http://www.w3.org/1999/xlink" x="0px" y="0px"
	 viewBox="0 0 300 300" style="enable-background:new 0 0 300 300;" xml:space="preserve">
<style type="text/css">
	.st0{fill:#FFFFFF;}
</style>
<g>
	<path class="st0" d="M267.5,266.9l-26,22c-1.6-2.2-10.1-13.7-25.7-34.2s-36.6-48.2-63.2-82.9h-0.4c-22.8,28.6-43.3,54.8-61.6,78.6
		s-28,36.5-29.2,38.2l-24-20c0.9-1.1,8.9-10.7,23.8-28.8c15-18.1,39.1-48.1,72.5-89.7v-0.4c-16-20.8-34.5-44.8-55.8-71.9
		C56.7,50.5,45.1,35.8,43.1,33.4l26-19.4c1.7,2.4,10.7,14.2,27.1,35.6c16.3,21.4,35.6,46.4,57.7,75.2h0.4
		c18.6-23.9,37.2-47.9,55.9-72C229,28.6,239,15.7,240.3,14L264,31.4c-1.3,1.7-13.6,17.1-36.9,46.3c-23.3,29.2-41.8,52.2-55.7,69.1
		v0.4c23.5,29.2,45.1,56,64.8,80.5C255.9,252.2,266.3,265.3,267.5,266.9z"/>
</g>
</svg>
